<svg width="680" height="78" viewBox="0 0 680 78" fill="none" xmlns="http://www.w3.org/2000/svg">
<g id="About">
<g id="about_rectangle" filter="url(#filter0_f)">
<path d="M0 4H448L348 74H0L0 4Z" fill="black"/>
</g>
<g id="TextAbout">
<g id="About Me" filter="url(#filter1_d)">
<path d="M234.25 47.8125L235.156 45.5625H242.844L243.75 47.8125H234.25ZM232.5 52.3125L233.375 50.0625H244.594L245.562 52.3125H232.5ZM230.75 56.8125L231.625 54.5625H246.375L247.312 56.8125H230.75ZM212.469 63H210.031L230.5 11.25H232.938L253.375 63H250.969L231.719 14.2812L212.469 63ZM232 19.625L233.281 22.5L217.281 63H214.875L232 19.625ZM234.5 25.5625L235.688 28.6562L222.156 63H219.719L234.5 25.5625ZM236.875 31.75L238.062 34.9062L226.969 63H224.562L236.875 31.75ZM267.906 63H265.469L245.031 11.25H247.438L267.906 63ZM242.594 11.25L263.062 63H260.656L240.188 11.25H242.594ZM237.75 11.25L258.219 63H255.781L235.344 11.25H237.75ZM307.094 40.25L307.031 40.2188C309.385 37.9271 310.562 35.1354 310.562 31.8438C310.562 28.7188 309.396 26.0104 307.062 23.7188C304.75 21.4062 302.01 20.25 298.844 20.25H274.094V63H271.844V18H298.844C301.302 18 303.604 18.6354 305.75 19.9062C307.917 21.1562 309.635 22.8542 310.906 25C312.177 27.125 312.812 29.4062 312.812 31.8438C312.812 35.1771 311.917 38.0417 310.125 40.4375C311.917 42.9167 312.812 45.6458 312.812 48.625C312.812 51.4792 312.167 54 310.875 56.1875C309.583 58.3542 307.885 59.9896 305.781 61.0938C303.698 62.1979 301.385 62.75 298.844 62.75H284.625V60.5H298.844C302.052 60.5 304.802 59.3646 307.094 57.0938C309.406 54.8021 310.562 51.9792 310.562 48.625C310.562 47.0833 310.229 45.5625 309.562 44.0625C308.896 42.5625 308.062 41.3021 307.062 40.2812C307.062 40.2604 307.073 40.25 307.094 40.25ZM298.844 51.5H284.625V53.75H298.844C300.219 53.75 301.385 53.2917 302.344 52.375C303.323 51.4375 303.812 50.1875 303.812 48.625C303.812 47.2708 303.312 46.0833 302.312 45.0625C301.312 44.0208 300.156 43.5 298.844 43.5H284.594V45.75H298.844C299.552 45.75 300.177 46.0417 300.719 46.625C301.281 47.2083 301.562 47.875 301.562 48.625C301.562 49.5417 301.302 50.25 300.781 50.75C300.26 51.25 299.615 51.5 298.844 51.5ZM298.844 56H284.625V58.25H298.844C301.427 58.25 303.646 57.3333 305.5 55.5C307.375 53.6458 308.312 51.3542 308.312 48.625C308.312 46.8958 307.844 45.2708 306.906 43.75C305.99 42.2083 304.771 41.0208 303.25 40.1875C304.771 39.3958 305.99 38.2708 306.906 36.8125C307.844 35.3333 308.312 33.6771 308.312 31.8438C308.312 29.3438 307.365 27.1667 305.469 25.3125C303.594 23.4375 301.385 22.5 298.844 22.5H276.344V63H278.594V24.75H298.844C300.76 24.75 302.438 25.4688 303.875 26.9062C305.333 28.3229 306.062 29.9688 306.062 31.8438C306.062 33.9271 305.354 35.6458 303.938 37C302.521 38.3333 300.823 39 298.844 39H291.969H284.625V41.25H291.969H298.844C300.76 41.25 302.438 41.9896 303.875 43.4688C305.333 44.9479 306.062 46.6667 306.062 48.625C306.062 50.7917 305.354 52.5625 303.938 53.9375C302.521 55.3125 300.823 56 298.844 56ZM298.844 34.5H284.625V36.75H298.844C300.24 36.75 301.417 36.3125 302.375 35.4375C303.333 34.5417 303.812 33.3438 303.812 31.8438C303.812 30.5729 303.312 29.4479 302.312 28.4688C301.312 27.4896 300.156 27 298.844 27H280.844V63H283.094V29.25H298.844C299.552 29.25 300.177 29.5208 300.719 30.0625C301.281 30.5833 301.562 31.1771 301.562 31.8438C301.562 32.6979 301.302 33.3542 300.781 33.8125C300.26 34.2708 299.615 34.5 298.844 34.5ZM335.156 34.1562C333.406 35.9062 332.531 38.0208 332.531 40.5C332.531 42.9792 333.406 45.1042 335.156 46.875C336.927 48.625 339.052 49.5 341.531 49.5C344.01 49.5 346.125 48.625 347.875 46.875C349.646 45.1042 350.531 42.9792 350.531 40.5C350.531 38.0208 349.646 35.9062 347.875 34.1562C346.125 32.3854 344.01 31.5 341.531 31.5C339.052 31.5 336.927 32.3854 335.156 34.1562ZM333.562 48.4688C331.375 46.2604 330.281 43.6042 330.281 40.5C330.281 37.3958 331.375 34.75 333.562 32.5625C335.771 30.3542 338.427 29.25 341.531 29.25C344.635 29.25 347.281 30.3542 349.469 32.5625C351.677 34.75 352.781 37.3958 352.781 40.5C352.781 43.6042 351.677 46.2604 349.469 48.4688C347.281 50.6562 344.635 51.75 341.531 51.75C338.427 51.75 335.771 50.6562 333.562 48.4688ZM331.969 30.9688C329.344 33.6146 328.031 36.7917 328.031 40.5C328.031 44.2083 329.344 47.3854 331.969 50.0312C334.615 52.6771 337.802 54 341.531 54C345.26 54 348.438 52.6771 351.062 50.0312C353.708 47.3854 355.031 44.2083 355.031 40.5C355.031 36.7917 353.708 33.6146 351.062 30.9688C348.438 28.3229 345.26 27 341.531 27C337.802 27 334.615 28.3229 331.969 30.9688ZM327.875 48.4062C326.479 45.9896 325.781 43.3542 325.781 40.5C325.781 37.6458 326.479 35.0104 327.875 32.5938C329.292 30.1771 331.208 28.2708 333.625 26.875C336.042 25.4583 338.677 24.75 341.531 24.75C344.385 24.75 347.021 25.4583 349.438 26.875C351.854 28.2708 353.76 30.1771 355.156 32.5938C356.573 35.0104 357.281 37.6458 357.281 40.5C357.281 43.3542 356.573 45.9896 355.156 48.4062C353.76 50.8229 351.854 52.7396 349.438 54.1562C347.021 55.5521 344.385 56.25 341.531 56.25C338.677 56.25 336.042 55.5521 333.625 54.1562C331.208 52.7396 329.292 50.8229 327.875 48.4062ZM324.938 33.5312C324 35.7396 323.531 38.0625 323.531 40.5C323.531 42.9375 324 45.2708 324.938 47.5C325.896 49.7083 327.177 51.625 328.781 53.25C330.406 54.8542 332.323 56.1354 334.531 57.0938C336.76 58.0312 339.094 58.5 341.531 58.5C343.969 58.5 346.292 58.0312 348.5 57.0938C350.729 56.1354 352.646 54.8542 354.25 53.25C355.875 51.625 357.156 49.7083 358.094 47.5C359.052 45.2708 359.531 42.9375 359.531 40.5C359.531 38.0625 359.052 35.7396 358.094 33.5312C357.156 31.3021 355.875 29.3854 354.25 27.7812C352.646 26.1562 350.729 24.875 348.5 23.9375C346.292 22.9792 343.969 22.5 341.531 22.5C339.094 22.5 336.76 22.9792 334.531 23.9375C332.323 24.875 330.406 26.1562 328.781 27.7812C327.177 29.3854 325.896 31.3021 324.938 33.5312ZM322.875 48.375C321.812 45.875 321.281 43.25 321.281 40.5C321.281 37.75 321.812 35.125 322.875 32.625C323.958 30.125 325.396 27.9792 327.188 26.1875C329 24.375 331.156 22.9375 333.656 21.875C336.156 20.7917 338.781 20.25 341.531 20.25C344.281 20.25 346.906 20.7917 349.406 21.875C351.906 22.9375 354.052 24.375 355.844 26.1875C357.656 27.9792 359.094 30.125 360.156 32.625C361.24 35.125 361.781 37.75 361.781 40.5C361.781 43.25 361.24 45.875 360.156 48.375C359.094 50.875 357.656 53.0312 355.844 54.8438C354.052 56.6354 351.906 58.0729 349.406 59.1562C346.906 60.2188 344.281 60.75 341.531 60.75C338.781 60.75 336.156 60.2188 333.656 59.1562C331.156 58.0729 329 56.6354 327.188 54.8438C325.396 53.0312 323.958 50.875 322.875 48.375ZM320.812 31.7812C319.625 34.5521 319.031 37.4583 319.031 40.5C319.031 43.5417 319.625 46.4583 320.812 49.25C322 52.0208 323.594 54.4167 325.594 56.4375C327.615 58.4375 330.01 60.0312 332.781 61.2188C335.573 62.4062 338.49 63 341.531 63C344.573 63 347.479 62.4062 350.25 61.2188C353.042 60.0312 355.438 58.4375 357.438 56.4375C359.458 54.4167 361.062 52.0208 362.25 49.25C363.438 46.4583 364.031 43.5417 364.031 40.5C364.031 37.4583 363.438 34.5521 362.25 31.7812C361.062 28.9896 359.458 26.5938 357.438 24.5938C355.438 22.5729 353.042 20.9688 350.25 19.7812C347.479 18.5938 344.573 18 341.531 18C338.49 18 335.573 18.5938 332.781 19.7812C330.01 20.9688 327.615 22.5729 325.594 24.5938C323.594 26.5938 322 28.9896 320.812 31.7812ZM318.75 50.125C317.438 47.0625 316.781 43.8542 316.781 40.5C316.781 37.1458 317.438 33.9479 318.75 30.9062C320.062 27.8438 321.823 25.2083 324.031 23C326.24 20.7917 328.865 19.0312 331.906 17.7188C334.969 16.4062 338.177 15.75 341.531 15.75C344.885 15.75 348.083 16.4062 351.125 17.7188C354.188 19.0312 356.823 20.7917 359.031 23C361.24 25.2083 363 27.8438 364.312 30.9062C365.625 33.9479 366.281 37.1458 366.281 40.5C366.281 43.8542 365.625 47.0625 364.312 50.125C363 53.1667 361.24 55.7917 359.031 58C356.823 60.2083 354.188 61.9688 351.125 63.2812C348.083 64.5938 344.885 65.25 341.531 65.25C338.177 65.25 334.969 64.5938 331.906 63.2812C328.865 61.9688 326.24 60.2083 324.031 58C321.823 55.7917 320.062 53.1667 318.75 50.125ZM400.875 43.0625V18H403.125V43.0625C403.125 45.4375 402.208 47.4792 400.375 49.1875C398.562 50.8958 396.375 51.75 393.812 51.75C391.25 51.75 389.052 50.8958 387.219 49.1875C385.406 47.4792 384.5 45.4375 384.5 43.0625V18H386.75V43.0625C386.75 44.8333 387.438 46.3542 388.812 47.625C390.208 48.875 391.875 49.5 393.812 49.5C395.75 49.5 397.406 48.875 398.781 47.625C400.177 46.3542 400.875 44.8333 400.875 43.0625ZM405.375 43.0625V18H407.625V43.0625C407.625 46.7083 406.271 49.8229 403.562 52.4062C400.854 54.9688 397.604 56.25 393.812 56.25C390.021 56.25 386.771 54.9688 384.062 52.4062C381.354 49.8229 380 46.7083 380 43.0625V18H382.25V43.0625C382.25 46.0833 383.375 48.6667 385.625 50.8125C387.896 52.9375 390.625 54 393.812 54C396.979 54 399.698 52.9375 401.969 50.8125C404.24 48.6667 405.375 46.0833 405.375 43.0625ZM409.875 43.0625V18H412.125V43.0625C412.125 46.25 411.302 49.2083 409.656 51.9375C408.01 54.6458 405.781 56.7917 402.969 58.375C400.156 59.9583 397.104 60.75 393.812 60.75C390.521 60.75 387.469 59.9583 384.656 58.375C381.844 56.7917 379.615 54.6458 377.969 51.9375C376.323 49.2083 375.5 46.25 375.5 43.0625V18H377.75V43.0625C377.75 45.8333 378.469 48.4062 379.906 50.7812C381.344 53.1562 383.292 55.0417 385.75 56.4375C388.229 57.8125 390.917 58.5 393.812 58.5C396.708 58.5 399.385 57.8125 401.844 56.4375C404.323 55.0417 406.281 53.1562 407.719 50.7812C409.156 48.4062 409.875 45.8333 409.875 43.0625ZM414.375 43.0625V18H416.625V43.0625C416.625 46.0625 416.021 48.9375 414.812 51.6875C413.604 54.4167 411.979 56.7708 409.938 58.75C407.896 60.7292 405.469 62.3021 402.656 63.4688C399.844 64.6562 396.896 65.25 393.812 65.25C390.729 65.25 387.781 64.6562 384.969 63.4688C382.156 62.3021 379.729 60.7292 377.688 58.75C375.646 56.7708 374.021 54.4167 372.812 51.6875C371.604 48.9375 371 46.0625 371 43.0625V18H373.25V43.0625C373.25 46.6458 374.167 49.9688 376 53.0312C377.854 56.0938 380.354 58.5208 383.5 60.3125C386.667 62.1042 390.104 63 393.812 63C397.521 63 400.948 62.1042 404.094 60.3125C407.26 58.5208 409.76 56.0938 411.594 53.0312C413.448 49.9688 414.375 46.6458 414.375 43.0625ZM430.25 30.4688H432.5V63H430.25V30.4688ZM421.25 20.25V18H455V20.25H421.25ZM421.25 24.75V22.5H455V24.75H421.25ZM421.25 29.25V27H455V29.25H421.25ZM443.75 30.4688H446V63H443.75V30.4688ZM439.25 30.4688H441.5V63H439.25V30.4688ZM434.75 30.4688H437V63H434.75V30.4688ZM518.031 44.125L520.281 39.875V63H518.031V44.125ZM522.531 35.5L524.781 31.25V63H522.531V35.5ZM527.031 27L529.281 22.7188V63H527.031V27ZM511.938 43.0625L510.656 40.7188L526.156 11.25H528.688L511.938 43.0625ZM509.344 38.1562L508.031 35.7812L521.031 11.25H523.594L509.344 38.1562ZM494.281 40.125L496.531 44.375V63H494.281V40.125ZM489.781 31.5625L492.031 35.8125V63H489.781V31.5625ZM485.281 23L487.531 27.2812V63H485.281V23ZM503.469 49.5H500.938L483.031 15.5312V63H480.781V11.25H483.312L503.469 49.5ZM508.562 49.5H506L485.875 11.25H488.438L508.562 49.5ZM531.531 15.5312L513.625 49.5H511.062L490.969 11.25H493.5L512.375 47.125L531.219 11.25H533.781V63H531.531V15.5312ZM550.969 63H548.719V18H550.969V63ZM546.469 63H544.219V18H546.469V63ZM541.969 63H539.719V18H541.969V63ZM555.469 51.75H577V54H555.469V56.25H577V58.5H555.469V60.75H577V63H553.219V18H577V20.25H555.469V22.5H577V24.75H555.469V27H577V29.25H555.469V34.8438H575.75V37.0938H555.469V39.3438H575.75V41.5938H555.469V43.8438H575.75V46.0938H555.469V51.75Z" fill="url(#paint0_linear)"/>
</g>
</g>
</g>
<defs>
<filter id="filter0_f" x="-4" y="0" width="456" height="78" filterUnits="userSpaceOnUse" color-interpolation-filters="sRGB">
<feFlood flood-opacity="0" result="BackgroundImageFix"/>
<feBlend mode="normal" in="SourceGraphic" in2="BackgroundImageFix" result="shape"/>
<feGaussianBlur stdDeviation="2" result="effect1_foregroundBlur"/>
</filter>
<filter id="filter1_d" x="206.031" y="11.25" width="374.969" height="62" filterUnits="userSpaceOnUse" color-interpolation-filters="sRGB">
<feFlood flood-opacity="0" result="BackgroundImageFix"/>
<feColorMatrix in="SourceAlpha" type="matrix" values="0 0 0 0 0 0 0 0 0 0 0 0 0 0 0 0 0 0 127 0"/>
<feOffset dy="4"/>
<feGaussianBlur stdDeviation="2"/>
<feColorMatrix type="matrix" values="0 0 0 0 0 0 0 0 0 0 0 0 0 0 0 0 0 0 0.25 0"/>
<feBlend mode="normal" in2="BackgroundImageFix" result="effect1_dropShadow"/>
<feBlend mode="normal" in="SourceGraphic" in2="effect1_dropShadow" result="shape"/>
</filter>
<linearGradient id="paint0_linear" x1="519.5" y1="74" x2="392.174" y2="-88.0602" gradientUnits="userSpaceOnUse">
<stop/>
<stop offset="0.490829" stop-color="#202200"/>
<stop offset="0.513517" stop-color="#EBFF00"/>
<stop offset="1" stop-color="#EBFF00"/>
</linearGradient>
</defs>
</svg>
