<svg width="824" height="78" viewBox="0 0 824 78" fill="none" xmlns="http://www.w3.org/2000/svg">
<g filter="url(#filter0_f)">
<path d="M0 4H592L492 74H0L0 4Z" fill="black"/>
</g>
<g filter="url(#filter1_d)">
<path d="M373.406 38.5H386.469C388.615 38.5 390.427 37.7812 391.906 36.3438C393.406 34.8854 394.156 32.8333 394.156 30.1875C394.156 28.2083 393.375 26.4375 391.812 24.875C390.25 23.2917 388.469 22.5 386.469 22.5H367.156V63H364.906V20.25H386.469C389.094 20.25 391.406 21.2604 393.406 23.2812C395.406 25.3021 396.406 27.6042 396.406 30.1875C396.406 33.375 395.438 35.9375 393.5 37.875C391.562 39.7917 389.219 40.75 386.469 40.75H373.406V38.5ZM373.406 43H386.469C388.635 43 390.635 42.4792 392.469 41.4375C394.323 40.375 395.812 38.8542 396.938 36.875C398.083 34.8958 398.656 32.6667 398.656 30.1875C398.656 26.9792 397.427 24.1458 394.969 21.6875C392.531 19.2292 389.698 18 386.469 18H362.656V63H360.406V15.75H386.469C388.99 15.75 391.365 16.4167 393.594 17.75C395.823 19.0833 397.594 20.8646 398.906 23.0938C400.24 25.3229 400.906 27.6875 400.906 30.1875C400.906 33.0208 400.24 35.6042 398.906 37.9375C397.573 40.25 395.802 42.0521 393.594 43.3438C391.406 44.6146 389.031 45.25 386.469 45.25H373.406V43ZM373.406 47.5H386.469C388.698 47.5 390.833 47.0625 392.875 46.1875C394.917 45.2917 396.688 44.0938 398.188 42.5938C399.708 41.0729 400.917 39.2396 401.812 37.0938C402.708 34.9271 403.156 32.625 403.156 30.1875C403.156 27.2708 402.396 24.5312 400.875 21.9688C399.354 19.3854 397.302 17.3333 394.719 15.8125C392.156 14.2708 389.406 13.5 386.469 13.5H358.156V63H355.906V11.25H386.469C389.802 11.25 392.927 12.125 395.844 13.875C398.76 15.6042 401.083 17.9271 402.812 20.8438C404.542 23.7604 405.406 26.875 405.406 30.1875C405.406 33.1458 404.896 35.875 403.875 38.375C402.854 40.8542 401.479 42.9167 399.75 44.5625C398.021 46.2083 396.01 47.4896 393.719 48.4062C391.427 49.3021 389.01 49.75 386.469 49.75H373.406V47.5ZM371.656 63H369.406V24.75H386.469C387.948 24.75 389.219 25.2917 390.281 26.375C391.365 27.4583 391.906 28.7292 391.906 30.1875C391.906 34.2292 390.094 36.25 386.469 36.25H373.406V34H386.469C387.469 34 388.25 33.7188 388.812 33.1562C389.375 32.5938 389.656 31.6042 389.656 30.1875C389.656 29.2708 389.344 28.5104 388.719 27.9062C388.115 27.3021 387.365 27 386.469 27H371.656V63ZM427.344 41.5H440.906C442.698 41.5 444.219 40.9375 445.469 39.8125C446.719 38.6875 447.344 37.1042 447.344 35.0625C447.344 33.5625 446.688 32.2188 445.375 31.0312C444.083 29.8438 442.594 29.25 440.906 29.25H421.594V63H419.344V27H440.906C443.219 27 445.24 27.8125 446.969 29.4375C448.719 31.0625 449.594 32.9375 449.594 35.0625C449.594 37.7083 448.75 39.8229 447.062 41.4062C445.375 42.9688 443.323 43.75 440.906 43.75H427.344V41.5ZM427.344 46H440.906C443.906 46 446.479 44.9792 448.625 42.9375C450.771 40.8958 451.844 38.2708 451.844 35.0625C451.844 32.3333 450.75 29.9375 448.562 27.875C446.375 25.7917 443.823 24.75 440.906 24.75H417.094V63H414.844V22.5H440.906C444.448 22.5 447.531 23.7604 450.156 26.2812C452.781 28.7812 454.094 31.7083 454.094 35.0625C454.094 38.8125 452.792 41.9479 450.188 44.4688C447.604 46.9896 444.51 48.25 440.906 48.25H427.344V46ZM427.344 50.5H440.906C443.677 50.5 446.24 49.8333 448.594 48.5C450.948 47.1667 452.823 45.3125 454.219 42.9375C455.635 40.5625 456.344 37.9375 456.344 35.0625C456.344 32.4583 455.646 30.0208 454.25 27.75C452.854 25.4583 450.958 23.6354 448.562 22.2812C446.188 20.9271 443.635 20.25 440.906 20.25H412.594V63H410.344V18H440.906C443.26 18 445.521 18.4688 447.688 19.4062C449.875 20.3229 451.76 21.5521 453.344 23.0938C454.927 24.6146 456.198 26.4271 457.156 28.5312C458.115 30.6354 458.594 32.8125 458.594 35.0625C458.594 38.7083 457.76 41.8958 456.094 44.625C454.427 47.3333 452.188 49.3958 449.375 50.8125L454.094 63H451.688L447.219 51.7188C446.656 51.9062 446 52.0938 445.25 52.2812L449.469 63H447.062L442.938 52.6562C442.292 52.7188 441.615 52.75 440.906 52.75L444.875 63H442.5L438.562 52.75H436.531L440.312 63H437.938L434.125 52.75H427.344V50.5ZM426.094 63H423.844V31.5H440.906C442.073 31.5 443.062 31.8542 443.875 32.5625C444.688 33.25 445.094 34.0833 445.094 35.0625C445.094 37.8542 443.698 39.25 440.906 39.25H427.344V37H440.906C442.198 37 442.844 36.3542 442.844 35.0625C442.844 34.7083 442.646 34.4062 442.25 34.1562C441.875 33.8854 441.427 33.75 440.906 33.75H426.094V63ZM480.781 34.1562C479.031 35.9062 478.156 38.0208 478.156 40.5C478.156 42.9792 479.031 45.1042 480.781 46.875C482.552 48.625 484.677 49.5 487.156 49.5C489.635 49.5 491.75 48.625 493.5 46.875C495.271 45.1042 496.156 42.9792 496.156 40.5C496.156 38.0208 495.271 35.9062 493.5 34.1562C491.75 32.3854 489.635 31.5 487.156 31.5C484.677 31.5 482.552 32.3854 480.781 34.1562ZM479.188 48.4688C477 46.2604 475.906 43.6042 475.906 40.5C475.906 37.3958 477 34.75 479.188 32.5625C481.396 30.3542 484.052 29.25 487.156 29.25C490.26 29.25 492.906 30.3542 495.094 32.5625C497.302 34.75 498.406 37.3958 498.406 40.5C498.406 43.6042 497.302 46.2604 495.094 48.4688C492.906 50.6562 490.26 51.75 487.156 51.75C484.052 51.75 481.396 50.6562 479.188 48.4688ZM477.594 30.9688C474.969 33.6146 473.656 36.7917 473.656 40.5C473.656 44.2083 474.969 47.3854 477.594 50.0312C480.24 52.6771 483.427 54 487.156 54C490.885 54 494.062 52.6771 496.688 50.0312C499.333 47.3854 500.656 44.2083 500.656 40.5C500.656 36.7917 499.333 33.6146 496.688 30.9688C494.062 28.3229 490.885 27 487.156 27C483.427 27 480.24 28.3229 477.594 30.9688ZM473.5 48.4062C472.104 45.9896 471.406 43.3542 471.406 40.5C471.406 37.6458 472.104 35.0104 473.5 32.5938C474.917 30.1771 476.833 28.2708 479.25 26.875C481.667 25.4583 484.302 24.75 487.156 24.75C490.01 24.75 492.646 25.4583 495.062 26.875C497.479 28.2708 499.385 30.1771 500.781 32.5938C502.198 35.0104 502.906 37.6458 502.906 40.5C502.906 43.3542 502.198 45.9896 500.781 48.4062C499.385 50.8229 497.479 52.7396 495.062 54.1562C492.646 55.5521 490.01 56.25 487.156 56.25C484.302 56.25 481.667 55.5521 479.25 54.1562C476.833 52.7396 474.917 50.8229 473.5 48.4062ZM470.562 33.5312C469.625 35.7396 469.156 38.0625 469.156 40.5C469.156 42.9375 469.625 45.2708 470.562 47.5C471.521 49.7083 472.802 51.625 474.406 53.25C476.031 54.8542 477.948 56.1354 480.156 57.0938C482.385 58.0312 484.719 58.5 487.156 58.5C489.594 58.5 491.917 58.0312 494.125 57.0938C496.354 56.1354 498.271 54.8542 499.875 53.25C501.5 51.625 502.781 49.7083 503.719 47.5C504.677 45.2708 505.156 42.9375 505.156 40.5C505.156 38.0625 504.677 35.7396 503.719 33.5312C502.781 31.3021 501.5 29.3854 499.875 27.7812C498.271 26.1562 496.354 24.875 494.125 23.9375C491.917 22.9792 489.594 22.5 487.156 22.5C484.719 22.5 482.385 22.9792 480.156 23.9375C477.948 24.875 476.031 26.1562 474.406 27.7812C472.802 29.3854 471.521 31.3021 470.562 33.5312ZM468.5 48.375C467.438 45.875 466.906 43.25 466.906 40.5C466.906 37.75 467.438 35.125 468.5 32.625C469.583 30.125 471.021 27.9792 472.812 26.1875C474.625 24.375 476.781 22.9375 479.281 21.875C481.781 20.7917 484.406 20.25 487.156 20.25C489.906 20.25 492.531 20.7917 495.031 21.875C497.531 22.9375 499.677 24.375 501.469 26.1875C503.281 27.9792 504.719 30.125 505.781 32.625C506.865 35.125 507.406 37.75 507.406 40.5C507.406 43.25 506.865 45.875 505.781 48.375C504.719 50.875 503.281 53.0312 501.469 54.8438C499.677 56.6354 497.531 58.0729 495.031 59.1562C492.531 60.2188 489.906 60.75 487.156 60.75C484.406 60.75 481.781 60.2188 479.281 59.1562C476.781 58.0729 474.625 56.6354 472.812 54.8438C471.021 53.0312 469.583 50.875 468.5 48.375ZM466.438 31.7812C465.25 34.5521 464.656 37.4583 464.656 40.5C464.656 43.5417 465.25 46.4583 466.438 49.25C467.625 52.0208 469.219 54.4167 471.219 56.4375C473.24 58.4375 475.635 60.0312 478.406 61.2188C481.198 62.4062 484.115 63 487.156 63C490.198 63 493.104 62.4062 495.875 61.2188C498.667 60.0312 501.062 58.4375 503.062 56.4375C505.083 54.4167 506.688 52.0208 507.875 49.25C509.062 46.4583 509.656 43.5417 509.656 40.5C509.656 37.4583 509.062 34.5521 507.875 31.7812C506.688 28.9896 505.083 26.5938 503.062 24.5938C501.062 22.5729 498.667 20.9688 495.875 19.7812C493.104 18.5938 490.198 18 487.156 18C484.115 18 481.198 18.5938 478.406 19.7812C475.635 20.9688 473.24 22.5729 471.219 24.5938C469.219 26.5938 467.625 28.9896 466.438 31.7812ZM464.375 50.125C463.062 47.0625 462.406 43.8542 462.406 40.5C462.406 37.1458 463.062 33.9479 464.375 30.9062C465.688 27.8438 467.448 25.2083 469.656 23C471.865 20.7917 474.49 19.0312 477.531 17.7188C480.594 16.4062 483.802 15.75 487.156 15.75C490.51 15.75 493.708 16.4062 496.75 17.7188C499.812 19.0312 502.448 20.7917 504.656 23C506.865 25.2083 508.625 27.8438 509.938 30.9062C511.25 33.9479 511.906 37.1458 511.906 40.5C511.906 43.8542 511.25 47.0625 509.938 50.125C508.625 53.1667 506.865 55.7917 504.656 58C502.448 60.2083 499.812 61.9688 496.75 63.2812C493.708 64.5938 490.51 65.25 487.156 65.25C483.802 65.25 480.594 64.5938 477.531 63.2812C474.49 61.9688 471.865 60.2083 469.656 58C467.448 55.7917 465.688 53.1667 464.375 50.125ZM515.531 56.2188V53.9688C516.99 53.9688 518.208 53.5521 519.188 52.7188C520.188 51.8854 520.688 50.7812 520.688 49.4062V18H522.938V49.4062C522.938 51.3854 522.219 53.0208 520.781 54.3125C519.344 55.5833 517.594 56.2188 515.531 56.2188ZM515.531 60.7188V58.4688C518.24 58.4688 520.521 57.5938 522.375 55.8438C524.25 54.0729 525.188 51.9271 525.188 49.4062V18H527.438V49.4062C527.438 52.5312 526.281 55.1979 523.969 57.4062C521.677 59.6146 518.865 60.7188 515.531 60.7188ZM515.531 65.2188V62.9688C519.49 62.9688 522.833 61.6458 525.562 59C528.312 56.3542 529.688 53.1562 529.688 49.4062V18H531.938V49.4062C531.938 52.2604 531.208 54.9062 529.75 57.3438C528.312 59.7604 526.333 61.6771 523.812 63.0938C521.292 64.5104 518.531 65.2188 515.531 65.2188ZM515.531 69.7188V67.4688C518.094 67.4688 520.521 66.9896 522.812 66.0312C525.125 65.0729 527.104 63.7917 528.75 62.1875C530.417 60.5625 531.74 58.6354 532.719 56.4062C533.698 54.1771 534.188 51.8438 534.188 49.4062V18H536.438V49.4062C536.438 52.1562 535.885 54.7812 534.781 57.2812C533.698 59.7812 532.219 61.9375 530.344 63.75C528.49 65.5833 526.271 67.0312 523.688 68.0938C521.104 69.1771 518.385 69.7188 515.531 69.7188ZM553.406 63H551.156V18H553.406V63ZM548.906 63H546.656V18H548.906V63ZM544.406 63H542.156V18H544.406V63ZM557.906 51.75H579.438V54H557.906V56.25H579.438V58.5H557.906V60.75H579.438V63H555.656V18H579.438V20.25H557.906V22.5H579.438V24.75H557.906V27H579.438V29.25H557.906V34.8438H578.188V37.0938H557.906V39.3438H578.188V41.5938H557.906V43.8438H578.188V46.0938H557.906V51.75ZM617.219 33.5L615.406 34.875C613.594 32.625 611.26 31.5 608.406 31.5C605.927 31.5 603.802 32.3854 602.031 34.1562C600.281 35.9062 599.406 38.0208 599.406 40.5C599.406 42.9792 600.281 45.1042 602.031 46.875C603.802 48.625 605.927 49.5 608.406 49.5C609.802 49.5 611.104 49.1979 612.312 48.5938C613.542 47.9896 614.583 47.1562 615.438 46.0938L617.188 47.5625C616.146 48.875 614.854 49.9062 613.312 50.6562C611.771 51.3854 610.135 51.75 608.406 51.75C605.302 51.75 602.646 50.6562 600.438 48.4688C598.25 46.2604 597.156 43.6042 597.156 40.5C597.156 37.3958 598.25 34.75 600.438 32.5625C602.646 30.3542 605.302 29.25 608.406 29.25C610.156 29.25 611.802 29.6354 613.344 30.4062C614.885 31.1562 616.177 32.1875 617.219 33.5ZM620.719 30.6875L618.938 32.0625C617.688 30.4792 616.135 29.2396 614.281 28.3438C612.448 27.4479 610.49 27 608.406 27C604.677 27 601.49 28.3229 598.844 30.9688C596.219 33.6146 594.906 36.7917 594.906 40.5C594.906 44.2083 596.219 47.3854 598.844 50.0312C601.49 52.6771 604.677 54 608.406 54C610.49 54 612.458 53.5521 614.312 52.6562C616.167 51.7396 617.719 50.4896 618.969 48.9062L620.688 50.3438C619.229 52.1771 617.427 53.625 615.281 54.6875C613.135 55.7292 610.844 56.25 608.406 56.25C605.552 56.25 602.917 55.5521 600.5 54.1562C598.083 52.7396 596.167 50.8229 594.75 48.4062C593.354 45.9896 592.656 43.3542 592.656 40.5C592.656 37.6458 593.354 35.0104 594.75 32.5938C596.167 30.1771 598.083 28.2708 600.5 26.875C602.917 25.4583 605.552 24.75 608.406 24.75C610.844 24.75 613.135 25.2812 615.281 26.3438C617.448 27.3854 619.26 28.8333 620.719 30.6875ZM624.25 27.875L622.5 29.2812C620.812 27.1771 618.74 25.5208 616.281 24.3125C613.823 23.1042 611.198 22.5 608.406 22.5C605.969 22.5 603.635 22.9792 601.406 23.9375C599.198 24.875 597.281 26.1562 595.656 27.7812C594.052 29.3854 592.771 31.3021 591.812 33.5312C590.875 35.7396 590.406 38.0625 590.406 40.5C590.406 42.9375 590.875 45.2708 591.812 47.5C592.771 49.7083 594.052 51.625 595.656 53.25C597.281 54.8542 599.198 56.1354 601.406 57.0938C603.635 58.0312 605.969 58.5 608.406 58.5C611.198 58.5 613.823 57.8958 616.281 56.6875C618.74 55.4792 620.812 53.8229 622.5 51.7188L624.188 53.1875C622.292 55.5417 619.969 57.3958 617.219 58.75C614.469 60.0833 611.531 60.75 608.406 60.75C605.656 60.75 603.031 60.2188 600.531 59.1562C598.031 58.0729 595.875 56.6354 594.062 54.8438C592.271 53.0312 590.833 50.875 589.75 48.375C588.688 45.875 588.156 43.25 588.156 40.5C588.156 37.75 588.688 35.125 589.75 32.625C590.833 30.125 592.271 27.9792 594.062 26.1875C595.875 24.375 598.031 22.9375 600.531 21.875C603.031 20.7917 605.656 20.25 608.406 20.25C611.552 20.25 614.5 20.9271 617.25 22.2812C620.021 23.6354 622.354 25.5 624.25 27.875ZM627.75 25.0625L625.938 26.4062C623.833 23.8021 621.25 21.75 618.188 20.25C615.146 18.75 611.885 18 608.406 18C605.365 18 602.448 18.5938 599.656 19.7812C596.885 20.9688 594.49 22.5729 592.469 24.5938C590.469 26.5938 588.875 28.9896 587.688 31.7812C586.5 34.5521 585.906 37.4583 585.906 40.5C585.906 43.5417 586.5 46.4583 587.688 49.25C588.875 52.0208 590.469 54.4167 592.469 56.4375C594.49 58.4375 596.885 60.0312 599.656 61.2188C602.448 62.4062 605.365 63 608.406 63C611.885 63 615.146 62.25 618.188 60.75C621.25 59.25 623.833 57.1979 625.938 54.5938L627.719 55.9688C625.406 58.8438 622.562 61.1146 619.188 62.7812C615.833 64.4271 612.24 65.25 608.406 65.25C605.052 65.25 601.844 64.5938 598.781 63.2812C595.74 61.9688 593.115 60.2083 590.906 58C588.698 55.7917 586.938 53.1667 585.625 50.125C584.312 47.0625 583.656 43.8542 583.656 40.5C583.656 37.1458 584.312 33.9479 585.625 30.9062C586.938 27.8438 588.698 25.2083 590.906 23C593.115 20.7917 595.74 19.0312 598.781 17.7188C601.844 16.4062 605.052 15.75 608.406 15.75C612.24 15.75 615.844 16.5833 619.219 18.25C622.594 19.8958 625.438 22.1667 627.75 25.0625ZM640 30.4688H642.25V63H640V30.4688ZM631 20.25V18H664.75V20.25H631ZM631 24.75V22.5H664.75V24.75H631ZM631 29.25V27H664.75V29.25H631ZM653.5 30.4688H655.75V63H653.5V30.4688ZM649 30.4688H651.25V63H649V30.4688ZM644.5 30.4688H646.75V63H644.5V30.4688ZM690.406 41.5938H686.844C682.469 41.5938 679.104 40.7083 676.75 38.9375C674.396 37.1458 673.219 34.6875 673.219 31.5625C673.219 28.6458 674.604 26.2188 677.375 24.2812C680.146 22.3229 684.031 21.3438 689.031 21.3438C692.365 21.3438 695.469 21.8021 698.344 22.7188C701.24 23.6354 703.646 24.9271 705.562 26.5938L703.812 28C702.104 26.6042 699.958 25.5208 697.375 24.75C694.792 23.9792 692.01 23.5938 689.031 23.5938C684.635 23.5938 681.271 24.3438 678.938 25.8438C676.625 27.3438 675.469 29.25 675.469 31.5625C675.469 34.0625 676.417 35.9896 678.312 37.3438C680.229 38.6771 683.073 39.3438 686.844 39.3438H690.281C694.719 39.3438 698.115 40.2396 700.469 42.0312C702.844 43.8021 704.031 46.25 704.031 49.375C704.031 52.2917 702.646 54.7292 699.875 56.6875C697.104 58.625 693.219 59.5938 688.219 59.5938C684.885 59.5938 681.771 59.1354 678.875 58.2188C676 57.3021 673.604 56.0104 671.688 54.3438L673.438 52.9375C675.146 54.3333 677.292 55.4167 679.875 56.1875C682.458 56.9583 685.24 57.3438 688.219 57.3438C692.615 57.3438 695.969 56.5938 698.281 55.0938C700.615 53.5938 701.781 51.6875 701.781 49.375C701.781 46.875 700.823 44.9583 698.906 43.625C697.01 42.2708 694.177 41.5938 690.406 41.5938ZM690.406 46.0938H686.844C681.052 46.0938 676.583 44.7812 673.438 42.1562C670.292 39.5104 668.719 35.9792 668.719 31.5625C668.719 29.5417 669.167 27.6458 670.062 25.875C670.958 24.1042 672.24 22.5521 673.906 21.2188C675.594 19.8646 677.74 18.8021 680.344 18.0312C682.948 17.2396 685.844 16.8438 689.031 16.8438C693.052 16.8438 696.812 17.4583 700.312 18.6875C703.812 19.8958 706.729 21.5938 709.062 23.7812L707.25 25.125C705.125 23.2083 702.469 21.7292 699.281 20.6875C696.094 19.625 692.677 19.0938 689.031 19.0938C683.406 19.0938 678.99 20.2812 675.781 22.6562C672.573 25.0312 670.969 28 670.969 31.5625C670.969 35.3333 672.344 38.3229 675.094 40.5312C677.844 42.7396 681.76 43.8438 686.844 43.8438H690.281C696.448 43.8438 699.531 45.6875 699.531 49.375C699.531 51.0417 698.583 52.4167 696.688 53.5C694.812 54.5625 691.99 55.0938 688.219 55.0938C685.573 55.0938 683.115 54.7917 680.844 54.1875C678.573 53.5625 676.698 52.6771 675.219 51.5312L677 50.1562C679.604 51.9479 683.344 52.8438 688.219 52.8438C691.344 52.8438 693.635 52.5208 695.094 51.875C696.552 51.2292 697.281 50.3958 697.281 49.375C697.281 48.1875 696.771 47.3438 695.75 46.8438C694.729 46.3438 692.948 46.0938 690.406 46.0938ZM690.406 37.0938H686.844C680.76 37.0938 677.719 35.25 677.719 31.5625C677.719 29.8958 678.656 28.5312 680.531 27.4688C682.427 26.3854 685.26 25.8438 689.031 25.8438C691.677 25.8438 694.135 26.1562 696.406 26.7812C698.677 27.3854 700.552 28.2604 702.031 29.4062L700.25 30.7812C697.646 28.9896 693.906 28.0938 689.031 28.0938C685.906 28.0938 683.615 28.4167 682.156 29.0625C680.698 29.7083 679.969 30.5417 679.969 31.5625C679.969 32.75 680.479 33.5938 681.5 34.0938C682.521 34.5938 684.302 34.8438 686.844 34.8438H690.406C696.198 34.8438 700.667 36.1667 703.812 38.8125C706.958 41.4375 708.531 44.9583 708.531 49.375C708.531 51.3958 708.083 53.2917 707.188 55.0625C706.292 56.8333 705 58.3958 703.312 59.75C701.646 61.0833 699.51 62.1458 696.906 62.9375C694.302 63.7083 691.406 64.0938 688.219 64.0938C684.198 64.0938 680.438 63.4896 676.938 62.2812C673.438 61.0521 670.521 59.3438 668.188 57.1562L670 55.8125C672.125 57.7292 674.781 59.2188 677.969 60.2812C681.156 61.3229 684.573 61.8438 688.219 61.8438C693.844 61.8438 698.26 60.6562 701.469 58.2812C704.677 55.9062 706.281 52.9375 706.281 49.375C706.281 45.6042 704.906 42.6146 702.156 40.4062C699.406 38.1979 695.49 37.0938 690.406 37.0938Z" fill="url(#paint0_linear)"/>
</g>
<defs>
<filter id="filter0_f" x="-4" y="0" width="600" height="78" filterUnits="userSpaceOnUse" color-interpolation-filters="sRGB">
<feFlood flood-opacity="0" result="BackgroundImageFix"/>
<feBlend mode="normal" in="SourceGraphic" in2="BackgroundImageFix" result="shape"/>
<feGaussianBlur stdDeviation="2" result="effect1_foregroundBlur"/>
</filter>
<filter id="filter1_d" x="351.906" y="11.25" width="361.156" height="66.4688" filterUnits="userSpaceOnUse" color-interpolation-filters="sRGB">
<feFlood flood-opacity="0" result="BackgroundImageFix"/>
<feColorMatrix in="SourceAlpha" type="matrix" values="0 0 0 0 0 0 0 0 0 0 0 0 0 0 0 0 0 0 127 0"/>
<feOffset dy="4"/>
<feGaussianBlur stdDeviation="2"/>
<feColorMatrix type="matrix" values="0 0 0 0 0 0 0 0 0 0 0 0 0 0 0 0 0 0 0.25 0"/>
<feBlend mode="normal" in2="BackgroundImageFix" result="effect1_dropShadow"/>
<feBlend mode="normal" in="SourceGraphic" in2="effect1_dropShadow" result="shape"/>
</filter>
<linearGradient id="paint0_linear" x1="663.5" y1="74" x2="536.174" y2="-88.0602" gradientUnits="userSpaceOnUse">
<stop/>
<stop offset="0.490829" stop-color="#202200"/>
<stop offset="0.513517" stop-color="#EBFF00"/>
<stop offset="1" stop-color="#EBFF00"/>
</linearGradient>
</defs>
</svg>
