<svg width="530" height="78" viewBox="0 0 530 78" fill="none" xmlns="http://www.w3.org/2000/svg">
<g id="Skills">
<g id="skills_rectangle" filter="url(#filter0_f)">
<path d="M181.5 4H529.5V74H81.5L181.5 4Z" fill="black"/>
</g>
<g id="TextSkills">
<g id="Skills_2" filter="url(#filter1_d)">
<path d="M26.8125 31.5H23.0312C21.4271 31.5 20.2708 31.0938 19.5625 30.2812C18.8542 29.4479 18.5 28.3542 18.5 27C18.5 24 20.7396 22.5 25.2188 22.5C29.4271 22.5 32.5938 23.125 34.7188 24.375L32.9062 25.75C31.4479 25.0833 28.8854 24.75 25.2188 24.75C23.4271 24.75 22.2188 24.9479 21.5938 25.3438C20.9896 25.7396 20.6875 26.2917 20.6875 27C20.6875 27.7083 20.8542 28.2604 21.1875 28.6562C21.5208 29.0521 22.1354 29.25 23.0312 29.25H26.9062C29.7188 29.25 32.25 29.7292 34.5 30.6875C36.7708 31.6458 38.6354 32.9583 40.0938 34.625C41.5521 36.2708 42.6667 38.1771 43.4375 40.3438C44.2083 42.4896 44.5938 44.7917 44.5938 47.25C44.5938 49.25 44.3125 51.1458 43.75 52.9375C43.1875 54.7292 42.3333 56.375 41.1875 57.875C40.0625 59.375 38.6979 60.6771 37.0938 61.7812C35.5104 62.8646 33.6146 63.7083 31.4062 64.3125C29.2188 64.9375 26.8438 65.25 24.2812 65.25C20.2604 65.25 16.4896 64.6354 12.9688 63.4062C9.46875 62.1979 6.55208 60.5 4.21875 58.3125L6.03125 56.9688C8.15625 58.8854 10.8125 60.375 14 61.4375C17.2083 62.4792 20.6354 63 24.2812 63C27.1354 63 29.7083 62.5938 32 61.7812C34.3125 60.9479 36.2083 59.8125 37.6875 58.375C39.1875 56.9375 40.3333 55.2708 41.125 53.375C41.9375 51.4792 42.3438 49.4375 42.3438 47.25C42.3438 44.3542 41.7604 41.7396 40.5938 39.4062C39.4271 37.0521 37.6458 35.1458 35.25 33.6875C32.875 32.2292 30.0625 31.5 26.8125 31.5ZM23.0312 33.75H26.5938C30.8229 33.75 34.125 35.0417 36.5 37.625C38.8958 40.2083 40.0938 43.4167 40.0938 47.25C40.0938 51.1458 38.7083 54.375 35.9375 56.9375C33.1667 59.4792 29.2812 60.75 24.2812 60.75C20.9479 60.75 17.8333 60.2917 14.9375 59.375C12.0417 58.4583 9.63542 57.1667 7.71875 55.5L9.46875 54.0938C11.1771 55.4896 13.3229 56.5729 15.9062 57.3438C18.5104 58.1146 21.3021 58.5 24.2812 58.5C28.6771 58.5 32.0312 57.4479 34.3438 55.3438C36.6771 53.2396 37.8438 50.5417 37.8438 47.25C37.8438 44 36.8646 41.3125 34.9062 39.1875C32.9688 37.0625 30.1875 36 26.5625 36H23.0312C19.9896 36 17.7083 35.1667 16.1875 33.5C14.6667 31.8333 13.9062 29.6667 13.9062 27C13.9062 24.3333 14.8438 22.1667 16.7188 20.5C18.6146 18.8333 21.4479 18 25.2188 18C27.8646 18 30.3229 18.3125 32.5938 18.9375C34.8646 19.5417 36.7396 20.4167 38.2188 21.5625L36.4375 22.9375C33.8333 21.1458 30.0938 20.25 25.2188 20.25C22.0729 20.25 19.7708 20.875 18.3125 22.125C16.875 23.3542 16.1562 24.9792 16.1562 27C16.1562 29.0417 16.6875 30.6771 17.75 31.9062C18.8333 33.1354 20.5938 33.75 23.0312 33.75ZM23.0312 38.25H26.4688C29.5104 38.25 31.7917 39.0938 33.3125 40.7812C34.8333 42.4688 35.5938 44.625 35.5938 47.25C35.5938 49.9167 34.6458 52.0833 32.75 53.75C30.875 55.4167 28.0521 56.25 24.2812 56.25C21.6354 56.25 19.1667 55.9479 16.875 55.3438C14.6042 54.7188 12.7292 53.8333 11.25 52.6875L13.0312 51.3125C15.6354 53.1042 19.3854 54 24.2812 54C27.4271 54 29.7188 53.3854 31.1562 52.1562C32.6146 50.9062 33.3438 49.2708 33.3438 47.25C33.3438 45.2292 32.8021 43.6042 31.7188 42.375C30.6354 41.125 28.875 40.5 26.4375 40.5H23.0312C18.7604 40.5 15.4167 39.2292 13 36.6875C10.6042 34.125 9.40625 30.8958 9.40625 27C9.40625 23.1042 10.7917 19.8854 13.5625 17.3438C16.3333 14.7812 20.2188 13.5 25.2188 13.5C28.5521 13.5 31.6562 13.9583 34.5312 14.875C37.4271 15.7917 39.8333 17.0833 41.75 18.75L40 20.1562C38.2917 18.7604 36.1458 17.6771 33.5625 16.9062C30.9792 16.1354 28.1979 15.75 25.2188 15.75C20.8229 15.75 17.4583 16.8021 15.125 18.9062C12.8125 21.0104 11.6562 23.7083 11.6562 27C11.6562 30.2708 12.6354 32.9688 14.5938 35.0938C16.5521 37.1979 19.3646 38.25 23.0312 38.25ZM23.0312 42.75H26.4688C28.0729 42.75 29.2292 43.1667 29.9375 44C30.6458 44.8333 31 45.9167 31 47.25C31 50.25 28.7604 51.75 24.2812 51.75C20.0521 51.75 16.875 51.125 14.75 49.875L16.5625 48.5C18.0208 49.1667 20.5938 49.5 24.2812 49.5C26.0729 49.5 27.2708 49.3021 27.875 48.9062C28.5 48.5104 28.8125 47.9583 28.8125 47.25C28.8125 46.5625 28.6354 46.0208 28.2812 45.625C27.9479 45.2083 27.3229 45 26.4062 45H23.0312C20.1562 45 17.5521 44.5312 15.2188 43.5938C12.9062 42.6562 11 41.3646 9.5 39.7188C8.02083 38.0729 6.88542 36.1667 6.09375 34C5.30208 31.8333 4.90625 29.5 4.90625 27C4.90625 25 5.1875 23.1042 5.75 21.3125C6.3125 19.5208 7.15625 17.875 8.28125 16.375C9.42708 14.875 10.7917 13.5833 12.375 12.5C13.9792 11.3958 15.875 10.5417 18.0625 9.9375C20.2708 9.3125 22.6562 9 25.2188 9C29.2396 9 33 9.61458 36.5 10.8438C40 12.0521 42.9167 13.75 45.25 15.9375L43.4375 17.2812C41.3125 15.3646 38.6562 13.8854 35.4688 12.8438C32.2812 11.7812 28.8646 11.25 25.2188 11.25C22.3646 11.25 19.7812 11.6667 17.4688 12.5C15.1771 13.3125 13.2812 14.4375 11.7812 15.875C10.3021 17.3125 9.15625 18.9792 8.34375 20.875C7.55208 22.7708 7.15625 24.8125 7.15625 27C7.15625 29.9375 7.75 32.5833 8.9375 34.9375C10.125 37.2917 11.9375 39.1875 14.375 40.625C16.8125 42.0417 19.6979 42.75 23.0312 42.75ZM96.875 18H94.375L81.8438 40.6875L94.1875 63H96.6875L84.3438 40.6875L96.875 18ZM91.8438 18H89.3438L76.8125 40.6875L89.1562 63H91.6562L79.3125 40.6875L91.8438 18ZM86.8125 18H84.3125L71.7812 40.6875L84.125 63H86.625L74.2812 40.6875L86.8125 18ZM81.7812 18H79.2812L66.7188 40.6875L79.0938 63H81.5938L69.2188 40.6875L81.7812 18ZM63.0938 18H65.3438V63H63.0938V18ZM58.5938 18H60.8438V63H58.5938V18ZM54.0938 18H56.3438V63H54.0938V18ZM49.5938 18H51.8438V63H49.5938V18ZM114.406 18H116.656V63H114.406V18ZM109.906 18H112.156V63H109.906V18ZM105.406 18H107.656V63H105.406V18ZM100.906 18H103.156V63H100.906V18ZM122.531 18H124.781V63H122.531V18ZM136.031 18H138.281V51.75H154.875V54H138.281V56.25H154.875V58.5H138.281V60.75H154.875V63H136.031V18ZM131.531 18H133.781V63H131.531V18ZM127.031 18H129.281V63H127.031V18ZM159.844 18H162.094V63H159.844V18ZM173.344 18H175.594V51.75H192.188V54H175.594V56.25H192.188V58.5H175.594V60.75H192.188V63H173.344V18ZM168.844 18H171.094V63H168.844V18ZM164.344 18H166.594V63H164.344V18ZM217.844 41.5938H214.281C209.906 41.5938 206.542 40.7083 204.188 38.9375C201.833 37.1458 200.656 34.6875 200.656 31.5625C200.656 28.6458 202.042 26.2188 204.812 24.2812C207.583 22.3229 211.469 21.3438 216.469 21.3438C219.802 21.3438 222.906 21.8021 225.781 22.7188C228.677 23.6354 231.083 24.9271 233 26.5938L231.25 28C229.542 26.6042 227.396 25.5208 224.812 24.75C222.229 23.9792 219.448 23.5938 216.469 23.5938C212.073 23.5938 208.708 24.3438 206.375 25.8438C204.062 27.3438 202.906 29.25 202.906 31.5625C202.906 34.0625 203.854 35.9896 205.75 37.3438C207.667 38.6771 210.51 39.3438 214.281 39.3438H217.719C222.156 39.3438 225.552 40.2396 227.906 42.0312C230.281 43.8021 231.469 46.25 231.469 49.375C231.469 52.2917 230.083 54.7292 227.312 56.6875C224.542 58.625 220.656 59.5938 215.656 59.5938C212.323 59.5938 209.208 59.1354 206.312 58.2188C203.438 57.3021 201.042 56.0104 199.125 54.3438L200.875 52.9375C202.583 54.3333 204.729 55.4167 207.312 56.1875C209.896 56.9583 212.677 57.3438 215.656 57.3438C220.052 57.3438 223.406 56.5938 225.719 55.0938C228.052 53.5938 229.219 51.6875 229.219 49.375C229.219 46.875 228.26 44.9583 226.344 43.625C224.448 42.2708 221.615 41.5938 217.844 41.5938ZM217.844 46.0938H214.281C208.49 46.0938 204.021 44.7812 200.875 42.1562C197.729 39.5104 196.156 35.9792 196.156 31.5625C196.156 29.5417 196.604 27.6458 197.5 25.875C198.396 24.1042 199.677 22.5521 201.344 21.2188C203.031 19.8646 205.177 18.8021 207.781 18.0312C210.385 17.2396 213.281 16.8438 216.469 16.8438C220.49 16.8438 224.25 17.4583 227.75 18.6875C231.25 19.8958 234.167 21.5938 236.5 23.7812L234.688 25.125C232.562 23.2083 229.906 21.7292 226.719 20.6875C223.531 19.625 220.115 19.0938 216.469 19.0938C210.844 19.0938 206.427 20.2812 203.219 22.6562C200.01 25.0312 198.406 28 198.406 31.5625C198.406 35.3333 199.781 38.3229 202.531 40.5312C205.281 42.7396 209.198 43.8438 214.281 43.8438H217.719C223.885 43.8438 226.969 45.6875 226.969 49.375C226.969 51.0417 226.021 52.4167 224.125 53.5C222.25 54.5625 219.427 55.0938 215.656 55.0938C213.01 55.0938 210.552 54.7917 208.281 54.1875C206.01 53.5625 204.135 52.6771 202.656 51.5312L204.438 50.1562C207.042 51.9479 210.781 52.8438 215.656 52.8438C218.781 52.8438 221.073 52.5208 222.531 51.875C223.99 51.2292 224.719 50.3958 224.719 49.375C224.719 48.1875 224.208 47.3438 223.188 46.8438C222.167 46.3438 220.385 46.0938 217.844 46.0938ZM217.844 37.0938H214.281C208.198 37.0938 205.156 35.25 205.156 31.5625C205.156 29.8958 206.094 28.5312 207.969 27.4688C209.865 26.3854 212.698 25.8438 216.469 25.8438C219.115 25.8438 221.573 26.1562 223.844 26.7812C226.115 27.3854 227.99 28.2604 229.469 29.4062L227.688 30.7812C225.083 28.9896 221.344 28.0938 216.469 28.0938C213.344 28.0938 211.052 28.4167 209.594 29.0625C208.135 29.7083 207.406 30.5417 207.406 31.5625C207.406 32.75 207.917 33.5938 208.938 34.0938C209.958 34.5938 211.74 34.8438 214.281 34.8438H217.844C223.635 34.8438 228.104 36.1667 231.25 38.8125C234.396 41.4375 235.969 44.9583 235.969 49.375C235.969 51.3958 235.521 53.2917 234.625 55.0625C233.729 56.8333 232.438 58.3958 230.75 59.75C229.083 61.0833 226.948 62.1458 224.344 62.9375C221.74 63.7083 218.844 64.0938 215.656 64.0938C211.635 64.0938 207.875 63.4896 204.375 62.2812C200.875 61.0521 197.958 59.3438 195.625 57.1562L197.438 55.8125C199.562 57.7292 202.219 59.2188 205.406 60.2812C208.594 61.3229 212.01 61.8438 215.656 61.8438C221.281 61.8438 225.698 60.6562 228.906 58.2812C232.115 55.9062 233.719 52.9375 233.719 49.375C233.719 45.6042 232.344 42.6146 229.594 40.4062C226.844 38.1979 222.927 37.0938 217.844 37.0938Z" fill="url(#paint0_linear)"/>
</g>
</g>
</g>
<defs>
<filter id="filter0_f" x="77.5" y="0" width="456" height="78" filterUnits="userSpaceOnUse" color-interpolation-filters="sRGB">
<feFlood flood-opacity="0" result="BackgroundImageFix"/>
<feBlend mode="normal" in="SourceGraphic" in2="BackgroundImageFix" result="shape"/>
<feGaussianBlur stdDeviation="2" result="effect1_foregroundBlur"/>
</filter>
<filter id="filter1_d" x="0.21875" y="9" width="240.281" height="64.25" filterUnits="userSpaceOnUse" color-interpolation-filters="sRGB">
<feFlood flood-opacity="0" result="BackgroundImageFix"/>
<feColorMatrix in="SourceAlpha" type="matrix" values="0 0 0 0 0 0 0 0 0 0 0 0 0 0 0 0 0 0 127 0"/>
<feOffset dy="4"/>
<feGaussianBlur stdDeviation="2"/>
<feColorMatrix type="matrix" values="0 0 0 0 0 0 0 0 0 0 0 0 0 0 0 0 0 0 0.25 0"/>
<feBlend mode="normal" in2="BackgroundImageFix" result="effect1_dropShadow"/>
<feBlend mode="normal" in="SourceGraphic" in2="effect1_dropShadow" result="shape"/>
</filter>
<linearGradient id="paint0_linear" x1="280.5" y1="64.5" x2="139.404" y2="-117.197" gradientUnits="userSpaceOnUse">
<stop stop-color="#EBFF00"/>
<stop offset="0.477002" stop-color="#EBFF00"/>
<stop offset="0.482818" stop-color="#202200"/>
<stop offset="1"/>
</linearGradient>
</defs>
</svg>
